<svg xmlns="http://www.w3.org/2000/svg" viewBox="0 0 59.32 52.03"><defs><style>.cls-1{fill:#fff;}</style></defs><title>fologo</title><g id="Layer_2" data-name="Layer 2"><g id="Layer_1-2" data-name="Layer 1"><path class="cls-1" d="M49.25,43.48a9.93,9.93,0,0,1-3.91-.79,10.5,10.5,0,0,1-3.18-2.13A10.36,10.36,0,0,1,40,37.38a9.69,9.69,0,0,1-.8-3.9,9.94,9.94,0,0,1,3-7.1,10.29,10.29,0,0,1,3.16-2.11,10.06,10.06,0,0,1,7.84,0,10.31,10.31,0,0,1,3.17,2.12,10.15,10.15,0,0,1,2.16,3.14,9.91,9.91,0,0,1,0,7.87,10.23,10.23,0,0,1-5.34,5.28A9.85,9.85,0,0,1,49.25,43.48Zm0-15.58a5.26,5.26,0,0,0-2.15.43,5.82,5.82,0,0,0-1.82,1.22,5.46,5.46,0,0,0-1.21,1.77,5.35,5.35,0,0,0-.44,2.16,5.2,5.2,0,0,0,.44,2.13,5.52,5.52,0,0,0,1.22,1.8,5.86,5.86,0,0,0,1.81,1.21,5.56,5.56,0,0,0,4.31,0,5.8,5.8,0,0,0,3-3,5.16,5.16,0,0,0,.44-2.12,5.38,5.38,0,0,0-.44-2.16,5.71,5.71,0,0,0-1.22-1.76,5.83,5.83,0,0,0-1.83-1.23A5.26,5.26,0,0,0,49.25,27.9Z"/><path class="cls-1" d="M27.94,52V28.56h5.12V47.11H39.2V52Z"/><polygon class="cls-1" points="12.65 4.92 12.65 0 0 0 0 23.48 5.12 23.48 5.12 14.19 8.51 14.19 8.51 9.28 5.12 9.28 5.12 4.92 12.65 4.92"/><path class="cls-1" d="M14.57,43.22a9.77,9.77,0,0,1-3.91-.8,10.4,10.4,0,0,1-3.17-2.13,10.16,10.16,0,0,1-2.17-3.18,9.62,9.62,0,0,1-.8-3.9,9.85,9.85,0,0,1,.8-3.92,10,10,0,0,1,2.17-3.17A10.38,10.38,0,0,1,10.65,24a10.11,10.11,0,0,1,7.84,0,10.49,10.49,0,0,1,3.17,2.12,10.17,10.17,0,0,1,2.17,3.15,9.78,9.78,0,0,1,.81,3.94,9.62,9.62,0,0,1-.81,3.92,10.45,10.45,0,0,1-2.16,3.15,10.6,10.6,0,0,1-3.18,2.14A9.85,9.85,0,0,1,14.57,43.22Zm0-15.58a5.29,5.29,0,0,0-2.15.43,5.74,5.74,0,0,0-1.82,1.21,5.46,5.46,0,0,0-1.21,1.77A5.38,5.38,0,0,0,9,33.21a5.25,5.25,0,0,0,.43,2.14,5.48,5.48,0,0,0,1.22,1.79,5.69,5.69,0,0,0,1.81,1.21,5.56,5.56,0,0,0,4.31,0,6,6,0,0,0,1.82-1.22,5.87,5.87,0,0,0,1.23-1.8,5.12,5.12,0,0,0,.43-2.12,5.17,5.17,0,0,0-.44-2.15,5.54,5.54,0,0,0-1.22-1.77,5.76,5.76,0,0,0-1.82-1.22A5.31,5.31,0,0,0,14.57,27.64Z"/></g></g></svg>