<?xml version="1.0" standalone="no"?>
<!DOCTYPE svg PUBLIC "-//W3C//DTD SVG 20010904//EN"
 "http://www.w3.org/TR/2001/REC-SVG-20010904/DTD/svg10.dtd">
<svg version="1.0" xmlns="http://www.w3.org/2000/svg"
 width="1080.000000pt" height="1080.000000pt" viewBox="0 0 1080.000000 1080.000000"
 preserveAspectRatio="xMidYMid meet">
<metadata>
Created by potrace 1.11, written by Peter Selinger 2001-2013
</metadata>
<g transform="translate(0.000000,1080.000000) scale(0.100000,-0.100000)"
fill="#000000" stroke="none">
<path d="M0 8023 l0 -2138 462 0 463 1 5 845 5 845 303 0 c261 -1 303 1 306
14 3 8 4 210 4 448 l0 432 -309 0 -309 0 0 400 0 400 638 -1 c350 0 657 0 682
0 l45 1 0 443 0 442 -1148 3 -1147 2 0 -2137z"/>
<path d="M2577 5944 c-1 -1 -36 -4 -77 -8 -131 -10 -168 -17 -325 -59 -44 -11
-82 -23 -85 -26 -3 -3 -14 -7 -24 -9 -24 -4 -229 -93 -236 -103 -3 -3 -16 -10
-30 -14 -14 -4 -49 -23 -78 -41 -29 -19 -55 -34 -57 -34 -9 0 -158 -109 -212
-155 -43 -37 -153 -150 -153 -157 0 -5 -4 -6 -10 -3 -5 3 -10 0 -10 -7 0 -8
-8 -21 -17 -29 -47 -42 -168 -213 -226 -321 -57 -104 -143 -324 -162 -413 -6
-28 -24 -115 -30 -145 -9 -43 -16 -118 -27 -265 -2 -25 13 -256 18 -277 3 -13
8 -41 11 -63 6 -52 9 -67 16 -85 4 -8 9 -26 11 -40 3 -14 5 -25 6 -25 1 0 4
-11 7 -25 6 -33 9 -41 18 -65 4 -11 23 -59 41 -108 51 -133 169 -354 196 -365
4 -2 8 -8 8 -14 0 -5 6 -15 13 -22 6 -7 23 -28 37 -47 71 -95 246 -272 320
-322 25 -17 47 -33 50 -36 35 -39 274 -170 410 -224 14 -5 34 -13 45 -18 53
-21 183 -60 249 -74 158 -32 225 -39 391 -39 120 1 161 4 255 20 63 10 190 44
248 66 31 12 63 23 71 24 8 2 17 8 21 14 4 7 9 11 11 10 2 -1 61 25 131 59 69
33 131 61 137 61 6 0 11 4 11 8 0 5 19 17 41 28 23 10 47 23 53 29 6 6 36 26
66 45 30 19 82 57 115 84 61 49 255 240 255 250 0 3 8 14 18 24 97 103 215
295 269 442 13 36 28 74 33 85 8 18 38 120 45 155 2 8 8 36 14 61 25 111 35
213 35 369 0 192 -16 307 -70 503 -36 129 -105 296 -126 305 -5 2 -8 8 -8 13
0 13 -102 173 -112 177 -5 2 -8 9 -8 15 0 7 -13 26 -28 44 -15 17 -38 46 -52
65 -55 72 -230 240 -315 302 -49 36 -95 69 -100 73 -16 13 -87 52 -125 71 -19
9 -37 20 -38 25 -2 4 -8 5 -13 1 -5 -3 -9 0 -9 5 0 6 -4 11 -10 11 -5 0 -51
18 -101 41 -50 23 -96 42 -103 44 -6 1 -18 5 -26 8 -42 18 -100 35 -100 30 0
-3 -6 -1 -12 4 -7 6 -29 13 -48 17 -19 3 -46 9 -60 12 -25 5 -55 11 -100 19
-68 12 -343 27 -353 19z m251 -818 c23 -6 53 -13 87 -20 46 -10 146 -46 196
-72 171 -86 308 -213 406 -377 42 -69 101 -199 109 -241 7 -34 12 -59 19 -86
14 -51 13 -314 0 -385 -22 -115 -25 -126 -56 -200 -49 -119 -124 -230 -218
-323 -48 -48 -95 -92 -103 -99 -41 -31 -128 -83 -128 -76 0 4 -4 3 -8 -3 -7
-11 -74 -43 -151 -73 -60 -24 -197 -54 -210 -47 -5 4 -12 3 -15 -2 -5 -9 -193
-7 -270 3 -27 3 -57 10 -67 15 -10 6 -27 10 -38 10 -12 0 -29 4 -39 9 -9 5
-51 23 -92 41 -229 97 -421 285 -525 513 -30 68 -46 106 -50 117 -17 62 -25
112 -30 188 -2 35 -6 66 -8 69 -3 3 -2 16 3 29 6 14 6 26 -1 29 -5 4 -6 11 -3
17 4 5 8 38 11 72 4 67 8 93 15 116 3 8 13 39 23 69 21 62 109 237 132 264 9
9 12 17 7 17 -5 0 -4 4 1 8 6 4 28 30 50 57 83 106 210 209 330 268 127 63
164 75 285 96 50 9 302 7 338 -3z"/>
<path d="M8818 5884 c-2 -2 -31 -6 -64 -9 -90 -8 -136 -18 -257 -52 -115 -32
-236 -81 -369 -148 -83 -42 -112 -58 -118 -66 -3 -3 -20 -14 -38 -23 -102 -52
-340 -268 -437 -396 -22 -29 -45 -57 -50 -64 -18 -20 -112 -170 -142 -226 -68
-128 -159 -390 -169 -488 -2 -18 -5 -41 -8 -50 -7 -25 -15 -88 -22 -167 -3
-38 -6 -74 -6 -80 -4 -40 15 -281 27 -342 8 -41 14 -78 13 -81 -1 -4 1 -14 5
-22 3 -8 9 -28 13 -45 4 -16 8 -34 10 -40 2 -5 5 -19 8 -30 29 -127 184 -440
263 -535 7 -8 34 -42 60 -75 111 -142 249 -272 388 -365 28 -19 53 -38 57 -44
4 -6 8 -8 8 -4 0 4 33 -13 74 -37 40 -25 81 -45 90 -45 9 0 16 -4 16 -9 0 -7
30 -20 48 -21 1 0 23 -11 50 -24 103 -52 303 -106 487 -132 93 -12 368 -13
435 -1 14 2 43 7 65 11 69 11 83 14 103 25 11 6 22 8 25 5 2 -3 20 1 38 9 19
8 36 14 39 14 9 0 55 14 75 23 11 5 72 30 135 56 63 26 129 55 145 64 17 9 55
30 85 46 30 16 57 31 60 34 3 3 37 26 75 52 128 85 241 188 333 303 31 39 59
72 62 75 8 8 53 70 102 140 54 77 149 261 164 315 1 6 14 44 29 85 14 41 29
86 31 100 3 14 13 52 22 85 14 50 17 109 17 370 0 171 -3 322 -7 338 -5 15
-10 37 -13 50 -3 12 -8 33 -11 47 -3 14 -6 33 -6 43 1 9 -4 17 -10 17 -5 0 -8
7 -5 15 4 8 2 17 -3 20 -6 4 -10 14 -10 23 0 17 -60 184 -69 192 -4 3 -19 30
-34 60 -26 50 -135 223 -164 260 -151 192 -353 379 -493 456 -19 10 -37 22
-40 25 -10 12 -230 118 -230 111 0 -4 -4 -2 -8 3 -4 6 -23 16 -42 23 -87 34
-200 70 -250 82 -30 7 -62 15 -70 17 -8 3 -35 7 -60 10 -25 2 -56 6 -70 10
-28 6 -376 13 -382 7z m317 -808 c22 -3 55 -9 73 -15 17 -5 32 -8 32 -6 0 2
24 -6 53 -17 28 -11 61 -22 72 -26 32 -9 156 -81 215 -125 54 -39 173 -155
198 -193 7 -10 25 -39 40 -63 15 -24 32 -48 38 -55 6 -6 11 -15 11 -19 1 -4
11 -29 23 -55 31 -67 37 -83 50 -123 26 -88 34 -155 34 -304 1 -128 -6 -208
-23 -262 -1 -2 -2 -6 -2 -10 -1 -5 -6 -19 -11 -33 -5 -14 -11 -33 -13 -42 -8
-41 -113 -228 -160 -286 -24 -29 -135 -142 -140 -142 -3 0 -17 -11 -31 -23
-65 -61 -257 -156 -375 -186 -116 -30 -272 -41 -359 -27 -14 3 -41 7 -60 10
-66 10 -86 16 -160 42 -3 1 -16 5 -29 9 -37 12 -170 83 -221 118 -149 103
-279 261 -353 432 -49 112 -66 180 -72 290 -2 33 -5 62 -6 65 -5 15 -4 37 4
53 5 10 4 17 -3 17 -6 0 -8 5 -5 10 4 6 9 39 11 73 4 65 11 122 14 122 1 0 3
10 6 23 14 79 111 290 150 330 8 7 14 18 14 23 0 16 194 203 233 224 20 11 37
23 37 27 0 5 4 8 10 8 5 0 31 13 57 28 59 34 164 77 218 87 22 5 47 10 55 12
8 2 32 5 53 7 21 2 39 5 42 7 5 6 224 1 280 -5z"/>
<path d="M5120 4962 c0 -6 -8 -9 -17 -8 -10 0 -18 -6 -18 -14 0 -8 -4 -20 -7
-26 -4 -6 -5 -14 -1 -18 8 -8 8 -130 -1 -144 -3 -6 -3 -13 1 -15 5 -3 7 -45 5
-94 -2 -48 -3 -92 -3 -98 4 -202 3 -264 -3 -273 -3 -6 -3 -13 1 -15 5 -3 7
-45 5 -94 -2 -48 -3 -92 -3 -98 4 -202 3 -264 -3 -273 -3 -6 -3 -13 1 -15 5
-3 7 -45 5 -94 -2 -48 -3 -92 -3 -98 4 -202 3 -264 -3 -273 -3 -6 -3 -13 1
-15 5 -3 7 -45 5 -94 -2 -48 -3 -92 -3 -98 4 -202 3 -264 -3 -273 -3 -6 -3
-13 1 -15 5 -3 7 -45 5 -94 -2 -48 -3 -92 -3 -98 4 -202 3 -264 -3 -273 -3 -6
-3 -13 1 -15 5 -3 7 -45 5 -94 -2 -48 -3 -92 -3 -98 4 -202 3 -264 -3 -273 -3
-6 -3 -13 1 -15 5 -3 7 -45 5 -94 -2 -48 -3 -92 -3 -98 4 -202 3 -264 -3 -273
-3 -6 -3 -13 1 -15 5 -3 7 -45 5 -94 -2 -48 -3 -92 -3 -98 3 -141 3 -262 1
-270 -1 -5 -1 -14 0 -20 1 -5 2 -50 3 -100 l2 -90 1017 0 1016 0 4 33 c2 18 1
38 -3 44 -4 7 -5 16 -2 21 5 9 7 176 3 195 -2 4 -1 11 0 17 2 14 3 238 0 250
-1 6 -1 15 0 20 1 6 1 53 0 105 -1 110 0 158 3 173 1 8 -150 12 -543 13 -300
1 -551 2 -557 3 -10 1 -13 346 -13 1691 l0 1690 -35 -3 c-20 -3 -38 0 -41 5
-3 4 -11 5 -17 1 -15 -9 -47 -12 -47 -4 0 3 -11 6 -25 6 -14 0 -25 -2 -25 -5
0 -5 -119 -4 -130 0 -3 1 -9 1 -15 0 -32 -7 -56 -6 -61 2 -3 4 -10 6 -15 2
-17 -10 -59 -12 -65 -2 -3 4 -10 6 -15 2 -17 -10 -59 -12 -65 -2 -3 4 -10 6
-15 2 -17 -10 -59 -12 -65 -2 -3 4 -10 6 -15 2 -17 -10 -59 -12 -65 -2 -3 4
-10 6 -15 2 -17 -10 -59 -12 -65 -3 -3 5 -13 6 -22 1 -21 -9 -43 -9 -59 1 -7
5 -13 4 -13 -1z"/>
</g>
</svg>
